<mxfile host="app.diagrams.net" modified="2024-07-02T06:37:46.020Z" agent="Mozilla/5.0 (Windows NT 10.0; Win64; x64) AppleWebKit/537.36 (KHTML, like Gecko) Chrome/126.0.0.0 Safari/537.36" version="24.6.4" etag="utJ7GFPxAODh5vkwwRhp" type="github">
  <diagram name="Page-1" id="ZLTMuO8H-ah16T096CKb">
    <mxGraphModel>
      <root>
        <mxCell id="0" />
        <mxCell id="1" parent="0" />
      </root>
    </mxGraphModel>
  </diagram>
</mxfile>
